<svg fill="none" height="28" viewBox="0 0 28 28" width="28" xmlns="http://www.w3.org/2000/svg"><path d="M22.1668 19.8332H24.5002C25.2002 19.8332 25.6668 19.3665 25.6668 18.6665V15.1665C25.6668 14.1165 24.8502 13.1832 23.9168 12.9498C21.8168 12.3665 18.6668 11.6665 18.6668 11.6665C18.6668 11.6665 17.1502 10.0332 16.1002 8.98317C15.5168 8.5165 14.8168 8.1665 14.0002 8.1665H5.8335C5.1335 8.1665 4.55016 8.63317 4.20016 9.2165L2.56683 12.5998C2.41234 13.0504 2.3335 13.5235 2.3335 13.9998V18.6665C2.3335 19.3665 2.80016 19.8332 3.50016 19.8332H5.8335" stroke="#FF0000" stroke-linecap="round" stroke-linejoin="round" stroke-width="2.33333"></path><path d="M8.16683 22.1667C9.45549 22.1667 10.5002 21.122 10.5002 19.8333C10.5002 18.5447 9.45549 17.5 8.16683 17.5C6.87816 17.5 5.8335 18.5447 5.8335 19.8333C5.8335 21.122 6.87816 22.1667 8.16683 22.1667Z" stroke="#FF0000" stroke-linecap="round" stroke-linejoin="round" stroke-width="2.33333"></path><path d="M10.5 19.8335H17.5" stroke="#FF0000" stroke-linecap="round" stroke-linejoin="round" stroke-width="2.33333"></path><path d="M19.8333 22.1667C21.122 22.1667 22.1667 21.122 22.1667 19.8333C22.1667 18.5447 21.122 17.5 19.8333 17.5C18.5447 17.5 17.5 18.5447 17.5 19.8333C17.5 21.122 18.5447 22.1667 19.8333 22.1667Z" stroke="#FF0000" stroke-linecap="round" stroke-linejoin="round" stroke-width="2.33333"></path></svg>