<svg fill="none" height="40" viewBox="0 0 40 40" width="40" xmlns="http://www.w3.org/2000/svg"><path d="M21.4875 4.68287L35.8128 15.9923C36.3522 16.4181 36.6668 17.0673 36.6668 17.7545C36.6668 18.9947 35.6617 19.9998 34.4215 19.9998H33.3335V25.8332C33.3335 30.5472 33.3335 32.9042 31.869 34.3687C30.4045 35.8332 28.0475 35.8332 23.3335 35.8332H16.6668C11.9528 35.8332 9.59576 35.8332 8.1313 34.3687C6.66683 32.9042 6.66683 30.5472 6.66683 25.8332V19.9998H5.57876C4.33875 19.9998 3.3335 18.9947 3.3335 17.7545C3.3335 17.0673 3.64816 16.4181 4.1875 15.9923L18.5128 4.68287C18.9363 4.34842 19.4603 4.1665 20.0002 4.1665C20.54 4.1665 21.064 4.34842 21.4875 4.68287Z" stroke="white" stroke-linecap="round" stroke-linejoin="round" stroke-width="2.5"></path><path d="M24.1668 35.8332V28.3332C24.1668 26.7755 24.1668 25.9967 23.8318 25.4165C23.6125 25.0365 23.2968 24.7208 22.9168 24.5015C22.3367 24.1665 21.5578 24.1665 20.0002 24.1665C18.4425 24.1665 17.6637 24.1665 17.0835 24.5015C16.7035 24.7208 16.3878 25.0365 16.1684 25.4165C15.8335 25.9967 15.8335 26.7755 15.8335 28.3332V35.8332" stroke="white" stroke-linecap="round" stroke-linejoin="round" stroke-width="2.5"></path></svg>